HIERARCHY
ROOT Hips
{
	OFFSET 0.000000 0.000000 0.000000
	CHANNELS 6 Xposition Yposition Zposition Zrotation Xrotation Yrotation
	JOINT Spine
	{
		OFFSET 0.000000 -0.000001 4.475688
		CHANNELS 6 Xposition Yposition Zposition Zrotation Xrotation Yrotation
		JOINT Spine1
		{
			OFFSET 0.000000 -0.000002 12.213760
			CHANNELS 6 Xposition Yposition Zposition Zrotation Xrotation Yrotation
			JOINT Neck
			{
				OFFSET 0.000000 -0.000002 13.305416
				CHANNELS 6 Xposition Yposition Zposition Zrotation Xrotation Yrotation
				JOINT Head
				{
					OFFSET 0.000000 -1.091633 8.460155
					CHANNELS 6 Xposition Yposition Zposition Zrotation Xrotation Yrotation
					End Site
					{
						OFFSET 0.000000 -0.000002 10.916295
					}
				}
			}
			JOINT LeftShoulder
			{
				OFFSET 2.198259 0.288553 10.743412
				CHANNELS 6 Xposition Yposition Zposition Zrotation Xrotation Yrotation
				JOINT LeftArm
				{
					OFFSET 7.844010 0.000000 0.000000
					CHANNELS 6 Xposition Yposition Zposition Zrotation Xrotation Yrotation
					JOINT LeftForeArm
					{
						OFFSET 15.380849 0.000000 0.000000
						CHANNELS 6 Xposition Yposition Zposition Zrotation Xrotation Yrotation
						JOINT LeftHand
						{
							OFFSET 14.294480 0.000000 0.000000
							CHANNELS 6 Xposition Yposition Zposition Zrotation Xrotation Yrotation
							End Site
							{
								OFFSET 8.187222 0.000000 0.000000
							}
						}
					}
				}
			}
			JOINT RightShoulder
			{
				OFFSET -2.167933 0.288553 10.743412
				CHANNELS 6 Xposition Yposition Zposition Zrotation Xrotation Yrotation
				JOINT RightArm
				{
					OFFSET -7.844010 0.000000 0.000000
					CHANNELS 6 Xposition Yposition Zposition Zrotation Xrotation Yrotation
					JOINT RightForeArm
					{
						OFFSET -15.380850 0.000000 0.000000
						CHANNELS 6 Xposition Yposition Zposition Zrotation Xrotation Yrotation
						JOINT RightHand
						{
							OFFSET -14.294484 0.000000 0.000000
							CHANNELS 6 Xposition Yposition Zposition Zrotation Xrotation Yrotation
							End Site
							{
								OFFSET -8.187222 0.000000 0.000000
							}
						}
					}
				}
			}
		}
	}
	JOINT LeftUpLeg
	{
		OFFSET 5.458161 0.000000 0.000000
		CHANNELS 6 Xposition Yposition Zposition Zrotation Xrotation Yrotation
		JOINT LeftLeg
		{
			OFFSET 0.000000 0.000004 -22.955132
			CHANNELS 6 Xposition Yposition Zposition Zrotation Xrotation Yrotation
			JOINT LeftFoot
			{
				OFFSET 0.000000 0.000004 -24.065840
				CHANNELS 6 Xposition Yposition Zposition Zrotation Xrotation Yrotation
				JOINT LeftToeBase
				{
					OFFSET 0.000000 -8.187240 -3.547803
					CHANNELS 6 Xposition Yposition Zposition Zrotation Xrotation Yrotation
					End Site
					{
						OFFSET 0.000000 -2.183259 0.000000
					}
				}
			}
		}
	}
	JOINT RightUpLeg
	{
		OFFSET -5.458161 0.000000 0.000000
		CHANNELS 6 Xposition Yposition Zposition Zrotation Xrotation Yrotation
		JOINT RightLeg
		{
			OFFSET 0.000000 0.000004 -22.955132
			CHANNELS 6 Xposition Yposition Zposition Zrotation Xrotation Yrotation
			JOINT RightFoot
			{
				OFFSET 0.000000 0.000004 -24.065840
				CHANNELS 6 Xposition Yposition Zposition Zrotation Xrotation Yrotation
				JOINT RightToeBase
				{
					OFFSET 0.000000 -8.187240 -3.547803
					CHANNELS 6 Xposition Yposition Zposition Zrotation Xrotation Yrotation
					End Site
					{
						OFFSET 0.000000 -2.183259 0.000000
					}
				}
			}
		}
	}
}
MOTION
Frames: 4
Frame Time: 0.016667
-7.049107 -11.048798 45.737213 -0.188809 9.134062 -1.304792 0.000001 -0.000002 4.475688 -2.232045 -17.832232 3.843652 -0.000000 -0.000004 12.213764 -0.305519 6.048382 -12.220949 0.000001 -0.000004 13.305427 3.448815 12.436065 -1.516044 0.000002 -1.091632 8.460151 4.348645 1.750975 7.390161 2.198260 0.288552 10.743416 -0.331817 -8.581549 -21.170561 7.844019 0.000001 0.000015 -12.467130 -9.910559 1.607328 15.380852 -0.000001 0.000002 0.666907 -5.863379 2.228624 14.294484 -0.000004 0.000002 19.938603 -4.840510 5.911018 -2.167933 0.288552 10.743413 -5.559918 -0.544548 16.842205 -7.844009 0.000000 -0.000002 32.209663 33.083046 -18.891347 -15.380850 -0.000005 0.000002 74.908426 25.945630 34.872374 -14.294482 0.000003 -0.000001 -10.622801 -5.879737 47.254192 5.458162 -0.000000 -0.000001 10.589215 -21.321670 -13.478405 0.000001 0.000005 -22.955130 4.008493 22.725508 0.399244 -0.000000 0.000004 -24.065842 18.047081 0.843078 8.771320 -0.000001 -8.187240 -3.547803 -0.000004 0.000000 -0.000001 -5.458161 0.000000 -0.000001 3.593526 -22.600425 22.465382 -0.000001 0.000007 -22.955132 21.422759 25.615807 -20.593695 0.000001 0.000005 -24.065840 -49.603030 -6.917927 -14.931559 0.000002 -8.187243 -3.547800 -0.000002 0.000002 0.000003 
-7.054356 -11.048938 45.736973 -0.197297 9.133521 -1.295999 0.000000 -0.000002 4.475685 -2.227326 -17.839518 3.838054 0.000000 -0.000003 12.213755 -0.303161 6.053028 -12.224268 -0.000000 -0.000003 13.305421 3.504083 12.450638 -1.544031 0.000001 -1.091633 8.460169 4.408348 1.702127 7.399858 2.198257 0.288553 10.743405 -0.338736 -8.586489 -21.160927 7.844014 0.000000 -0.000009 -12.461692 -9.916745 1.602760 15.380858 -0.000000 0.000007 0.673420 -5.867698 2.243089 14.294482 0.000000 -0.000000 19.947731 -4.852936 5.863296 -2.167935 0.288552 10.743406 -5.552151 -0.544641 16.847244 -7.844013 -0.000001 -0.000011 32.206985 33.150292 -18.901302 -15.380853 -0.000004 -0.000005 74.875266 25.957760 34.959111 -14.294482 -0.000007 -0.000012 -10.570362 -5.903118 47.256573 5.458161 0.000000 -0.000006 10.564644 -21.310270 -13.498575 0.000001 0.000006 -22.955126 4.033032 22.716828 0.393025 0.000002 0.000001 -24.065836 18.054345 0.854602 8.816303 -0.000001 -8.187240 -3.547803 0.000002 -0.000001 0.000001 -5.458161 0.000000 -0.000005 3.583459 -22.601924 22.445458 0.000005 0.000005 -22.955132 21.404360 25.616338 -20.579437 0.000000 0.000002 -24.065836 -49.579609 -6.925446 -14.921368 -0.000000 -8.187237 -3.547796 -0.000001 0.000002 0.000000 
-7.059511 -11.050011 45.736000 -0.197313 9.126396 -1.295805 0.000001 -0.000001 4.475687 -2.227190 -17.835179 3.840031 0.000000 -0.000002 12.213758 -0.303397 6.049613 -12.227265 -0.000002 -0.000001 13.305419 3.566482 12.445936 -1.565783 0.000001 -1.091633 8.460169 4.471033 1.683065 7.385141 2.198258 0.288554 10.743411 -0.342364 -8.592615 -21.146626 7.844014 0.000001 0.000000 -12.458216 -9.887995 1.597126 15.380857 -0.000001 0.000011 0.674140 -5.875233 2.249779 14.294478 0.000002 -0.000004 19.953310 -4.860266 5.863187 -2.167937 0.288554 10.743407 -5.561560 -0.533936 16.852355 -7.844015 -0.000000 0.000005 32.198533 33.153861 -18.883144 -15.380848 -0.000001 -0.000004 74.885532 25.955748 34.970323 -14.294475 0.000003 0.000008 -10.598198 -5.933297 47.259865 5.458161 0.000000 -0.000000 10.541539 -21.295726 -13.509837 -0.000000 0.000004 -22.955130 4.016325 22.708919 0.398394 0.000001 0.000002 -24.065834 18.084575 0.853229 8.778979 0.000001 -8.187240 -3.547799 -0.000004 -0.000001 -0.000001 -5.458161 -0.000000 0.000000 3.557932 -22.604286 22.432088 0.000002 0.000005 -22.955133 21.449465 25.614113 -20.591885 -0.000001 0.000002 -24.065834 -49.587976 -6.945185 -14.897259 -0.000001 -8.187243 -3.547803 -0.000003 0.000001 0.000000 
-7.063745 -11.048868 45.735485 -0.208254 9.126065 -1.285100 -0.000000 -0.000001 4.475692 -2.222401 -17.838904 3.827940 -0.000000 -0.000003 12.213757 -0.300863 6.053929 -12.226717 -0.000001 -0.000002 13.305412 3.620717 12.445190 -1.584797 0.000001 -1.091632 8.460140 4.526488 1.655850 7.376441 2.198259 0.288553 10.743411 -0.337467 -8.600149 -21.149674 7.844007 0.000001 -0.000013 -12.458087 -9.862768 1.616229 15.380855 -0.000002 0.000002 0.669669 -5.885025 2.244302 14.294471 0.000003 -0.000007 19.965661 -4.868056 5.870235 -2.167934 0.288553 10.743406 -5.555678 -0.539171 16.866867 -7.844010 -0.000005 -0.000004 32.181423 33.138599 -18.881933 -15.380845 0.000002 0.000003 74.907443 25.957202 34.948179 -14.294478 0.000003 -0.000005 -10.618250 -5.932853 47.263365 5.458161 0.000000 0.000004 10.499692 -21.280988 -13.532939 0.000001 0.000006 -22.955130 4.060830 22.695829 0.383381 0.000000 0.000003 -24.065842 18.089293 0.854032 8.784134 -0.000002 -8.187241 -3.547799 -0.000001 -0.000001 -0.000001 -5.458162 -0.000001 0.000003 3.561242 -22.619310 22.417562 0.000002 0.000006 -22.955130 21.484737 25.623767 -20.614582 0.000002 0.000002 -24.065836 -49.610819 -6.942008 -14.908269 0.000005 -8.187239 -3.547803 0.000001 0.000001 -0.000002 
